<svg xmlns="http://www.w3.org/2000/svg" viewBox="0 0 1200 630">
  <defs>
    <linearGradient id="bg" x1="0%" y1="0%" x2="100%" y2="100%">
      <stop offset="0%" style="stop-color:#1a1612"/>
      <stop offset="100%" style="stop-color:#2a2420"/>
    </linearGradient>
    <linearGradient id="brass" x1="0%" y1="0%" x2="100%" y2="100%">
      <stop offset="0%" style="stop-color:#FFC300"/>
      <stop offset="100%" style="stop-color:#D4A574"/>
    </linearGradient>
  </defs>

  <!-- Background -->
  <rect width="1200" height="630" fill="url(#bg)"/>

  <!-- Decorative border -->
  <rect x="20" y="20" width="1160" height="590" fill="none" stroke="#D4A574" stroke-width="2" opacity="0.3" rx="10"/>

  <!-- Book icon -->
  <g transform="translate(480, 180) scale(3)">
    <path d="M4 6 L4 26 Q16 24 16 24 L16 4 Q4 4 4 6" fill="#8B4513"/>
    <path d="M28 6 L28 26 Q16 24 16 24 L16 4 Q28 4 28 6" fill="#8B4513"/>
    <path d="M6 7 L6 24 Q16 22 16 22 L16 5 Q6 5 6 7" fill="#FFF8E7"/>
    <path d="M26 7 L26 24 Q16 22 16 22 L16 5 Q26 5 26 7" fill="#FFF8E7"/>
    <path d="M15 5 L15 23 L17 23 L17 5" fill="#FFC300" opacity="0.6"/>
  </g>

  <!-- Title -->
  <text x="600" y="420" font-family="Georgia, serif" font-size="72" fill="#FFC300" text-anchor="middle" font-weight="bold">C&amp;W Book Club</text>

  <!-- Subtitle -->
  <text x="600" y="480" font-family="Georgia, serif" font-size="28" fill="#F5E6D3" text-anchor="middle" opacity="0.8">The Reading Room</text>

  <!-- Decorative line -->
  <line x1="400" y1="520" x2="800" y2="520" stroke="#D4A574" stroke-width="1" opacity="0.5"/>
</svg>
